<svg width="400px" height="400px" viewBox="0 0 400 400" version="1.1" xmlns="http://www.w3.org/2000/svg">
  <rect fill="#007C89" x="0" y="0" width="400" height="400" rx="50"/>
  <path d="M292.678927,231.027772 L292.678927,168.972228 C308.35723,163.4632 320.106064,150.286201 323.793764,134.082625 C327.481465,117.879049 322.58794,100.915627 310.836084,89.1639156 C299.084373,77.4122037 282.12167,72.5185354 265.917375,76.2062358 C249.71308,79.8939362 236.536656,91.6427698 231.027772,107.321073 L168.972228,107.321073 C163.4632,91.6427698 150.286201,79.8939362 134.082625,76.2062358 C117.879049,72.5185354 100.915627,77.4120598 89.1639156,89.1639156 C77.4122037,100.915627 72.5185354,117.87833 76.2062358,134.082625 C79.8939362,150.28692 91.6427698,163.463344 107.321073,168.972228 L107.321073,231.027772 C91.6427698,236.5368 79.8939362,249.713799 76.2062358,265.917375 C72.5185354,282.120951 77.4120598,299.084373 89.1639156,310.836084 C100.915627,322.587796 117.87833,327.481465 134.082625,323.793764 C150.28692,320.106064 163.463344,308.35723 168.972228,292.678927 L231.027772,292.678927 C236.5368,308.35723 249.713799,320.106064 265.917375,323.793764 C282.120951,327.481465 299.084373,322.58794 310.836084,310.836084 C322.587796,299.084373 327.481465,282.12167 323.793764,265.917375 C320.106064,249.71308 308.35723,236.536656 292.678927,231.027772 Z M230.395287,260.606061 L168.657744,260.606061 C163.811702,246.940217 153.059783,236.188656 139.393939,231.342256 L139.393939,169.604713 C153.059783,164.758672 163.811344,154.006753 168.657744,140.340909 L230.395287,140.340909 C235.241328,154.006753 245.993247,164.758314 259.659091,169.604713 L259.659091,231.342256 C245.993247,236.188298 235.241686,246.940217 230.395287,260.606061 Z M276.703108,107.19697 C280.972992,107.19697 285.069103,108.892591 288.086783,111.913217 C291.107409,114.931041 292.80303,119.026864 292.80303,123.296892 C292.80303,127.563973 291.107409,131.660012 288.086783,134.677692 C285.068959,137.698318 280.973136,139.393939 276.703108,139.393939 C272.436027,139.393939 268.339988,137.698318 265.322308,134.677692 C262.301682,131.659868 260.606061,127.564045 260.606061,123.296892 C260.606061,119.027008 262.301682,114.930897 265.322308,111.913217 C268.340132,108.892591 272.435955,107.19697 276.703108,107.19697 Z M123.296892,107.19697 C127.563973,107.19697 131.660012,108.892591 134.677692,111.913217 C137.698318,114.931041 139.393939,119.026864 139.393939,123.296892 C139.393939,127.563973 137.698318,131.660012 134.677692,134.677692 C131.659868,137.698318 127.564045,139.393939 123.296892,139.393939 C119.027008,139.393939 114.930897,137.698318 111.913217,134.677692 C108.892591,131.659868 107.19697,127.564045 107.19697,123.296892 C107.19697,119.027008 108.892591,114.930897 111.913217,111.913217 C114.931041,108.892591 119.026864,107.19697 123.296892,107.19697 Z M123.296892,292.80303 C119.027008,292.80303 114.930897,291.107409 111.913217,288.086783 C108.892591,285.068959 107.19697,280.973136 107.19697,276.703108 C107.19697,272.436027 108.892591,268.339988 111.913217,265.322308 C114.931041,262.301682 119.026864,260.606061 123.296892,260.606061 C127.563973,260.606061 131.660012,262.301682 134.677692,265.322308 C137.698318,268.340132 139.393939,272.435955 139.393939,276.703108 C139.393939,280.972992 137.698318,285.069103 134.677692,288.086783 C131.659868,291.107409 127.564045,292.80303 123.296892,292.80303 Z M276.705915,292.80303 L276.703108,292.80303 C272.436027,292.80303 268.339988,291.107409 265.322308,288.086783 C262.301682,285.068959 260.606061,280.973136 260.606061,276.703108 C260.606061,272.436027 262.301682,268.339988 265.322308,265.322308 C268.340132,262.301682 272.435955,260.606061 276.703108,260.606061 C280.972992,260.606061 285.069103,262.301682 288.086783,265.322308 C291.107409,268.340132 292.80303,272.435955 292.80303,276.703108 C292.80303,280.972992 291.107409,285.069103 288.086783,288.086783 C285.068959,291.107409 280.973136,292.80303 276.703108,292.80303 L276.705915,292.80303 Z" fill="#FFFFFF" fill-rule="nonzero"/>
</svg>